<svg xmlns="http://www.w3.org/2000/svg" xmlns:xlink="http://www.w3.org/1999/xlink" width="1920" height="1080" viewBox="0 0 1920 1080">
  <defs>
    <clipPath id="clip-Web_1920_1">
      <rect width="1920" height="1080"/>
    </clipPath>
  </defs>
  <g id="Web_1920_1" data-name="Web 1920 – 1" clip-path="url(#clip-Web_1920_1)">
    <rect width="1920" height="1080" fill="#fff"/>
    <g id="Group_4" data-name="Group 4" transform="translate(2854 1967.114)">
      <path id="Path_9" data-name="Path 9" d="M521.3,394.954c16.2.7,30.964-4.56,46.446-8.419,50.767-12.629,100.453-27.011,148.339-43.849,81.73-28.765,234.75-78.578,229.349-171.538C941.468,105.548,828.054,19.6,751,12.588c-61.928-5.964-96.852,38.587-131.417,68.756-68.049,59.635-158.06,132.951-174.262,222.4-5.041,28.414,11.882,69.808,51.847,86.3A79.688,79.688,0,0,0,521.3,394.954Z" transform="translate(-2350.198 -1746.642)" fill="#f2eeed" opacity="0.81" style="isolation: isolate"/>
      <path id="Path_7" data-name="Path 7" d="M904.8,143.63c-52.824-21.849-114.452-38.369-177.47-51.692C635.58,72.22,542.906,49.572,449.305,32.519c-87.576-15.721-220.1-52.491-306.75-18.652C-12.209,73.819,206.964,171.874,200.94,242.218,194.916,308.831,38.3,260.07,4.472,298.972c-8.341,9.326-4.17,20.783,5.56,29.576,13.381,12.218,29.769,23.258,48.654,32.774,66.725,33.84,165.422,55.955,252.535,74.341H904.8Z" transform="translate(-1949.203 -1531.452) rotate(180)" fill="#dcb6ab" opacity="0.248" style="isolation: isolate"/>
      <path id="Path_6" data-name="Path 6" d="M549.839,352.771C632.055,392.438,742.047,421,842.6,429.989c96.1,8.991,207.207-15.867,297.2,13.751a193.43,193.43,0,0,1,24.443,9.52c59.44,28.031,84.438,77.747,117.213,121.645A253.938,253.938,0,0,0,1362,647.893a212.777,212.777,0,0,0,126.1,24.858,219.947,219.947,0,0,0,58.329-15.338V0H457.069C385.963,124.819,369.3,265.5,549.839,352.771Z" transform="translate(-2480.432 -1967.114)" fill="#979a83" opacity="0.248" style="isolation: isolate"/>
    </g>
  </g>
</svg>
